{"title":"The Legend Of 1900 [1998] 720p BRrip XviD AC3 - CODY","uid":6243524,"size":2916561182,"categoryP":"video","categoryS":"hd___movies","magnet":"?xt=urn:btih:3cfdfa28973ba50454555865b7505d7c4230db84&amp;dn=The+Legend+Of+1900+%5B1998%5D+720p+BRrip+XviD+AC3+-+CODY&amp;tr=udp%3A%2F%2Ftracker.openbittorrent.com%3A80&amp;tr=udp%3A%2F%2Fopen.demonii.com%3A1337&amp;tr=udp%3A%2F%2Ftracker.coppersurfer.tk%3A6969&amp;tr=udp%3A%2F%2Fexodus.desync.com%3A6969","seeders":5,"leechers":2,"uploader":"CODYBOSS1969","files":6,"time":1300155500,"description":"General\nComplete name                    : The Legend Of 1900 [1998] 720p BRrip XviD AC3 - CODY.avi\nFormat                           : AVI\nFormat/Info                      : Audio Video Interleave\nFormat profile                   : OpenDML\nFormat settings                  : rec\nFile size                        : 2.72 GiB\nDuration                         : 2h 49mn\nOverall bit rate                 : 2 291 Kbps\nWriting application              : VirtualDubMod 1.5.10.2 (build 2540/release)\nWriting library                  : VirtualDubMod build 2540/release\n\nVideo\nID                               : 0\nFormat                           : MPEG-4 Visual\nFormat profile                   : Advanced Simple@L5\nFormat settings, BVOP            : Yes\nFormat settings, QPel            : No\nFormat settings, GMC             : No warppoints\nFormat settings, Matrix          : Default (H.263)\nMuxing mode                      : Packed bitstream\nCodec ID                         : XVID\nCodec ID/Hint                    : XviD\nDuration                         : 2h 49mn\nBit rate                         : 1 840 Kbps\nWidth                            : 1 280 pixels\nHeight                           : 544 pixels\nDisplay aspect ratio             : 2.35:1\nFrame rate                       : 23.976 fps\nColor space                      : YUV\nChroma subsampling               : 4:2:0\nBit depth                        : 8 bits\nScan type                        : Progressive\nCompression mode                 : Lossy\nBits/(Pixel*Frame)               : 0.110\nStream size                      : 2.18 GiB (80%)\nWriting library                  : XviD 1.2.0.dev47 (UTC 2006-11-01)\n\nAudio\nID                               : 1\nFormat                           : AC-3\nFormat/Info                      : Audio Coding 3\nMode extension                   : CM (complete main)\nCodec ID                         : 2000\nDuration                         : 2h 49mn\nBit rate mode                    : Constant\nBit rate                         : 448 Kbps\nChannel(s)                       : 6 channels\nChannel positions                : Front: L C R, Side: L R, LFE\nSampling rate                    : 48.0 KHz\nBit depth                        : 16 bits\nCompression mode                 : Lossy\nStream size                      : 544 MiB (20%)\nAlignment                        : Aligned on interleaves\nInterleave, duration             : 64 ms (1.53 video frames)\nInterleave, preload duration     : 192 ms\nLanguage                         : English\n\n\n\n\nIMDB link:                        &lt;a href=&quot; http://www.imdb.com/title/tt0120731/&quot; rel=&quot;nofollow&quot; target=&quot;_NEW&quot;&gt; http://www.imdb.com/title/tt0120731/&lt;/a&gt;\n\n\n\nSubtitles included: Romanian, English, Italian\n\n\n\nPlease Seed at least 1,5:1 for the chance to survive of this torrent.\n\n\n\nThanks. ENJOY !\n\n","torrent":{"xt":"urn:btih:3cfdfa28973ba50454555865b7505d7c4230db84","amp;dn":"The+Legend+Of+1900+%5B1998%5D+720p+BRrip+XviD+AC3+-+CODY","amp;tr":["udp%3A%2F%2Ftracker.openbittorrent.com%3A80","udp%3A%2F%2Fopen.demonii.com%3A1337","udp%3A%2F%2Ftracker.coppersurfer.tk%3A6969","udp%3A%2F%2Fexodus.desync.com%3A6969"],"infoHash":"3cfdfa28973ba50454555865b7505d7c4230db84","infoHashBuffer":{"type":"Buffer","data":[60,253,250,40,151,59,165,4,84,85,88,101,183,80,93,124,66,48,219,132]},"announce":[],"urlList":[]}}